<?xml version="1.0" encoding="utf-8"?>
<!-- Generator: Adobe Illustrator 25.4.1, SVG Export Plug-In . SVG Version: 6.00 Build 0)  -->
<svg version="1.1" id="Capa_1" xmlns="http://www.w3.org/2000/svg" xmlns:xlink="http://www.w3.org/1999/xlink" x="0px" y="0px"
	 viewBox="0 0 489 489" style="enable-background:new 0 0 489 489;" xml:space="preserve">
<style type="text/css">
	.st0{fill:#7E242B;}
</style>
<g>
	<g>
		<path class="st0" d="M0,437.8V92.2c0-13.5,10.9-24.4,24.4-24.4h255.1h51.3l-48.7,48.7h-2.6H48.7v296.9h296.9v-53.3v-72.8
			l48.7-48.7v121.5v77.7c0,13.4-10.9,24.4-24.4,24.4H24.4C10.9,462.2,0,451.3,0,437.8z M212.1,250.8l-52-52
			c-14.6-14.6-38.3-14.6-52.9,0c-7.1,7.1-11,16.5-11,26.5s3.9,19.4,11,26.4l78.4,78.4c14.6,14.6,38.3,14.6,52.9,0L478,90.6
			c7.1-7.1,11-16.5,11-26.4c0-10-3.9-19.4-11-26.5c-14.6-14.6-38.3-14.6-52.9,0L212.1,250.8z"/>
	</g>
</g>
</svg>
