<?xml version="1.0" encoding="utf-8"?>
<!-- Generator: Adobe Illustrator 25.4.1, SVG Export Plug-In . SVG Version: 6.00 Build 0)  -->
<svg version="1.1" id="Capa_1" xmlns="http://www.w3.org/2000/svg" xmlns:xlink="http://www.w3.org/1999/xlink" x="0px" y="0px"
	 viewBox="0 0 512 512" style="enable-background:new 0 0 512 512;" xml:space="preserve">
<style type="text/css">
	.st0{opacity:8.000000e-02;}
</style>
<g class="st0">
	<path d="M429.1,155.8c0-1.2,0.3-2.4,0.3-3.6c3.3-56.7-12.9-98.4-45.9-117.3c-34.5-20.1-81-10.5-127.5,21
		c-46.5-31.5-92.7-41.1-127.5-21c-39.3,22.8-50.1,69.3-45.6,120.9C32.2,180.4,0,215.8,0,255.7c0,39.9,32.2,75.3,82.9,99.9
		c-4.5,51.6,6.3,98.1,45.6,120.9c39,22.5,84.6,8.7,127.5-21.3c42.9,30,88.5,43.8,127.5,21.3c39.3-22.8,50.1-69.3,45.6-120.9
		c50.7-24.6,82.9-60,82.9-99.9C512,215.8,479.8,180.4,429.1,155.8L429.1,155.8z M368.5,60.7c21,12.3,32.4,42.3,31.2,82.8
		c-21-7.5-44.1-13.2-69-17.1c-15.9-19.8-32.7-36.9-49.5-51.3C312.1,54.7,343.3,46,368.5,60.7z M387.1,215.2
		c-4.5-9.6-9.3-18.6-14.1-27c-5.1-9-10.5-17.7-16.2-25.8c14.1,3.3,27.6,7.2,39.9,12C394.6,187.6,391.6,201.4,387.1,215.2z
		 M396.4,337c-12.3,4.8-25.5,8.7-39.6,12c6-8.7,11.4-17.4,16.2-25.8c5.1-8.7,9.6-17.4,13.8-26.1C390.7,310.3,394,323.8,396.4,337z
		 M256,360.7c-20.1,0-39.9-1.2-58.5-3.9c-11.4-15-22.5-31.2-32.4-48.6c-8.4-14.4-17.1-32.4-25.2-52.2c7.8-20.1,16.8-38.1,25.2-52.8
		c8.7-15.3,20.4-32.1,33.3-48.9c18.3-2.4,37.8-3.6,57.6-3.6s39.3,1.2,57.6,3.6c13.2,17.1,24.6,33.9,33.3,48.9
		c8.7,14.7,17.4,33,25.5,53.1c-6.9,17.4-15.6,34.8-25.5,51.9c-9.9,17.4-21,33.6-32.4,48.6C295.9,359.5,276.1,360.7,256,360.7
		L256,360.7z M286.3,389.8c-9.9,10.5-20.1,20.1-30.3,27.9c-10.2-7.8-20.4-17.4-30.3-27.9c9.9,0.6,20.1,0.9,30.3,0.9
		S276.4,390.4,286.3,389.8z M115.6,174.4c12.3-4.8,25.5-8.7,39.6-12c-5.7,8.1-11.1,16.8-16.2,25.8c-4.8,8.1-9.3,16.8-13.8,26.1
		C121.3,201.1,118,187.6,115.6,174.4L115.6,174.4z M125.5,297.4c4.2,9.3,9,17.7,13.5,25.8c4.8,8.4,10.2,17.1,16.2,25.8
		c-14.1-3.3-27-7.2-39.3-11.7C118.3,324.1,121.6,310.6,125.5,297.4L125.5,297.4z M226.9,121.6c9.3-9.9,19.2-19.2,29.1-27.6
		c10.2,8.4,19.8,17.7,29.1,27.6c-9.6-0.6-19.2-0.9-29.1-0.9S236.5,121,226.9,121.6z M143.5,60.7C169,46,200.2,55,231.1,75.1
		c-17.1,14.4-33.9,31.5-49.8,51.3c-24.9,3.9-48.3,9.9-69.3,17.1C109.9,106.6,118,75.4,143.5,60.7z M30,255.7
		c0-26.1,22.6-50.1,57.4-68.7c4.5,23.1,11.4,46.5,20.1,68.7c-8.4,22.2-15.3,45.6-19.8,68.7C52.6,305.8,30,281.8,30,255.7L30,255.7z
		 M143.5,450.7c-25.5-14.7-33.3-46.2-31.2-82.8c21.3,7.5,45,13.5,70.2,17.1c14.7,18.3,31.5,35.7,48.9,50.7
		C197.8,457,166,463.6,143.5,450.7L143.5,450.7z M368.5,450.7c-26.5,15.3-62.2,1.5-87.9-15c17.4-15,34.2-32.4,48.9-50.7
		c25.5-3.6,49.2-9.6,70.5-17.1C402.1,404.8,394,436,368.5,450.7z M424.6,324.4c-4.5-22.8-11.4-45.9-19.5-67.8
		c9-23.7,15.9-47.1,19.5-69.6c34.8,18.6,57.4,42.6,57.4,68.7S459.4,305.8,424.6,324.4L424.6,324.4z"/>
	<path d="M256,207.1c-17.7-15.6-45-15-61.8,1.8c-17.7,17.4-17.7,46.2,0,63.6l61.8,61.8l61.8-61.8c17.7-17.4,17.7-46.2,0-63.6
		C301,192.1,273.7,191.5,256,207.1L256,207.1z"/>
</g>
</svg>
