<svg id="Capa_1" enable-background="new 0 0 512 512" height="512" viewBox="0 0 512 512" width="512" xmlns="http://www.w3.org/2000/svg"><g><path d="m429.101 155.788c0-1.199.3-2.401.3-3.6 3.3-56.7-12.902-98.401-45.901-117.299-34.501-20.101-81-10.501-127.5 20.999-46.5-31.5-92.701-41.1-127.5-20.999-39.3 22.798-50.099 69.3-45.601 120.899-50.7 24.6-82.899 60-82.899 99.901 0 39.899 32.199 75.3 82.899 99.899-4.499 51.601 6.301 98.101 45.601 120.901 39 22.5 84.6 8.699 127.5-21.301 42.9 30 88.5 43.801 127.5 21.301 39.3-22.8 50.099-69.3 45.601-120.901 50.7-24.598 82.899-60 82.899-99.899 0-39.901-32.199-75.301-82.899-99.901zm-60.601-95.1c21 12.299 32.401 42.299 31.199 82.8-20.999-7.5-44.099-13.2-69-17.1-15.899-19.801-32.699-36.901-49.499-51.301 30.9-20.399 62.099-29.099 87.3-14.399zm18.6 154.499c-4.501-9.6-9.3-18.6-14.099-26.999-5.101-9-10.501-17.701-16.201-25.8 14.101 3.3 27.601 7.2 39.901 11.999-2.101 13.2-5.1 27.001-9.601 40.8zm9.3 121.8c-12.299 4.801-25.499 8.701-39.6 12.001 6-8.699 11.4-17.401 16.201-25.8 5.099-8.701 9.598-17.401 13.799-26.1 3.9 13.2 7.199 26.699 9.6 39.899zm-140.4 23.701c-20.099 0-39.901-1.201-58.5-3.9-11.4-15-22.5-31.201-32.401-48.6-8.399-14.401-17.098-32.401-25.199-52.2 7.8-20.101 16.8-38.101 25.199-52.8 8.701-15.3 20.402-32.1 33.301-48.9 18.3-2.401 37.8-3.6 57.599-3.6s39.3 1.199 57.599 3.6c13.2 17.1 24.6 33.9 33.301 48.9 8.699 14.7 17.399 32.999 25.499 53.099-6.899 17.401-15.601 34.801-25.499 51.901-9.901 17.399-21 33.6-32.401 48.6-18.597 2.699-38.399 3.9-58.498 3.9zm30.3 29.099c-9.901 10.501-20.099 20.101-30.3 27.9-10.201-7.798-20.4-17.399-30.3-27.9 9.901.601 20.099.901 30.3.901s20.4-.3 30.3-.901zm-170.7-215.4c12.299-4.799 25.499-8.699 39.6-11.999-5.7 8.099-11.1 16.8-16.201 25.8-4.799 8.099-9.3 16.8-13.799 26.1-3.9-13.2-7.199-26.701-9.6-39.901zm9.901 123.001c4.199 9.3 9 17.699 13.499 25.8 4.801 8.399 10.201 17.1 16.201 25.8-14.101-3.3-27.001-7.2-39.3-11.7 2.398-13.201 5.7-26.701 9.6-39.9zm101.4-175.801c9.3-9.899 19.199-19.199 29.099-27.599 10.201 8.401 19.799 17.701 29.099 27.599-9.598-.599-19.199-.899-29.099-.899s-19.501.3-29.099.899zm-83.401-60.899c25.499-14.7 56.7-5.7 87.599 14.399-17.1 14.399-33.9 31.5-49.799 51.301-24.901 3.9-48.3 9.899-69.3 17.1-2.1-36.901 6.001-68.1 31.5-82.8zm-113.5 195c0-26.1 22.599-50.101 57.4-68.701 4.501 23.101 11.4 46.501 20.099 68.701-8.399 22.2-15.3 45.599-19.799 68.699-35.101-18.599-57.7-42.599-57.7-68.699zm113.5 195c-25.499-14.7-33.3-46.201-31.199-82.8 21.299 7.5 45 13.5 70.199 17.1 14.7 18.3 31.5 35.7 48.9 50.7-33.6 21.299-65.4 27.9-87.9 15zm225 0c-26.524 15.298-62.246 1.516-87.9-15 17.401-15 34.2-32.401 48.9-50.7 25.499-3.6 49.2-9.6 70.499-17.1 2.101 36.899-6 68.1-31.499 82.8zm56.1-126.301c-4.501-22.8-11.4-45.899-19.501-67.8 9.001-23.699 15.901-47.1 19.501-69.6 34.801 18.6 57.4 42.601 57.4 68.701s-22.599 50.1-57.4 68.699z"/><path d="m256 207.088c-17.701-15.601-45-15-61.8 1.8-17.701 17.399-17.701 46.199 0 63.6l61.8 61.8 61.8-61.8c17.701-17.4 17.701-46.201 0-63.6-16.8-16.8-44.099-17.4-61.8-1.8z"/></g></svg>