<?xml version="1.0" encoding="utf-8"?>
<!-- Generator: Adobe Illustrator 25.4.1, SVG Export Plug-In . SVG Version: 6.00 Build 0)  -->
<svg version="1.1" id="Capa_1" xmlns="http://www.w3.org/2000/svg" xmlns:xlink="http://www.w3.org/1999/xlink" x="0px" y="0px"
	 viewBox="0 0 508.5 508.5" style="enable-background:new 0 0 508.5 508.5;" xml:space="preserve">
<style type="text/css">
	.st0{opacity:8.000000e-02;}
</style>
<g class="st0">
	<g>
		<g>
			<path d="M114.9,174l-28.8,28.8C114.5,109.9,212.8,57.6,305.7,86c35.4,10.8,66.5,32.5,88.9,62l25.5-19.3
				C350.8,37.2,220.5,19.1,129,88.3C91,117,64.1,157.8,52.6,204l-30-30L0,196.7l68.8,68.8l68.8-68.8L114.9,174z"/>
			<path d="M439.7,242.7l-68.8,68.8l22.6,22.6l29.1-29.1c-28.1,93.1-126.3,145.7-219.4,117.6c-37-11.2-69.3-34.2-91.9-65.6l-26,18.7
				c32.1,44.9,80.8,75,135.2,83.8c11.2,1.8,22.5,2.7,33.8,2.7c95.5,0,178.7-65.3,201.4-158l30,29.9l22.7-22.6L439.7,242.7z
				 M438.9,288.8l0.8-0.8l1.2,1.2L438.9,288.8z"/>
		</g>
	</g>
</g>
</svg>
