<?xml version="1.0" encoding="utf-8"?>
<!-- Generator: Adobe Illustrator 25.4.1, SVG Export Plug-In . SVG Version: 6.00 Build 0)  -->
<svg version="1.1" id="Capa_1" xmlns="http://www.w3.org/2000/svg" xmlns:xlink="http://www.w3.org/1999/xlink" x="0px" y="0px"
	 viewBox="0 0 512 512" style="enable-background:new 0 0 512 512;" xml:space="preserve">
<style type="text/css">
	.st0{opacity:8.000000e-02;}
</style>
<g class="st0">
	<g>
		<path d="M496,224c-8.8,0-16,7.2-16,16v181.2l-128,51.2V304c0-8.8-7.2-16-16-16s-16,7.2-16,16v168.4l-128-51.2V167.6l74.1,29.7
			c8.1,3.3,17.5-0.7,20.8-8.9s-0.7-17.5-8.9-20.8l-95.8-38.3l0,0l-0.3-0.1c-3.8-1.5-8.1-1.5-11.9,0l-0.3,0.1l0,0L10.1,193.2
			c-6,2.4-10,8.3-10,14.8v288c0,5.3,2.7,10.3,7,13.2c2.7,1.8,5.8,2.8,9,2.8c2,0,4-0.4,6-1.2l154-61.6l153.8,61.5l0,0l0.3,0.1
			c3.8,1.5,8.1,1.5,11.9,0l0.3-0.1l0,0L502,446.9c6-2.5,10-8.3,10-14.9V240C512,231.2,504.8,224,496,224z M160,421.2L32,472.4V218.8
			l128-51.2V421.2z"/>
	</g>
</g>
<g class="st0">
	<g>
		<path d="M400,64c-26.5,0-48,21.5-48,48s21.5,48,48,48s48-21.5,48-48S426.5,64,400,64z M400,128c-8.8,0-16-7.2-16-16s7.2-16,16-16
			s16,7.2,16,16S408.8,128,400,128z"/>
	</g>
</g>
<g class="st0">
	<g>
		<path d="M400,0c-61.8,0-112,50.2-112,112c0,57.5,89.9,159.3,100.1,170.7c3,3.4,7.4,5.3,11.9,5.3s8.9-2,11.9-5.3
			C422.2,271.3,512,169.5,512,112C512,50.2,461.8,0,400,0z M400,247.6c-34.9-41.4-80-105.1-80-135.6c0-44.1,35.9-80,80-80
			s80,35.9,80,80C480,142.5,435,206.1,400,247.6z"/>
	</g>
</g>
</svg>
