<?xml version="1.0" encoding="utf-8"?>
<!-- Generator: Adobe Illustrator 25.4.1, SVG Export Plug-In . SVG Version: 6.00 Build 0)  -->
<svg version="1.1" id="Capa_1" xmlns="http://www.w3.org/2000/svg" xmlns:xlink="http://www.w3.org/1999/xlink" x="0px" y="0px"
	 viewBox="0 0 297 297" style="enable-background:new 0 0 297 297;" xml:space="preserve">
<style type="text/css">
	.st0{opacity:8.000000e-02;}
</style>
<path class="st0" d="M256.2,7.6c-22.5,0-40.8,18.3-40.8,40.8c0,3,0.3,5.9,0.9,8.7L164,83.3c-7.5-8.7-18.5-14.2-30.9-14.2
	c-22.5,0-40.8,18.3-40.8,40.8s18.3,40.8,40.8,40.8c3.2,0,6.3-0.4,9.3-1.1l25.1,37.6c-8.4,7.5-13.6,18.3-13.6,30.4
	c0,2.3,0.2,4.6,0.6,6.8L79.9,237c-5-16.9-20.6-29.3-39.1-29.3C18.3,207.8,0,226.1,0,248.6c0,22.5,18.3,40.8,40.8,40.8
	c19.5,0,35.9-13.8,39.9-32.2l82.3-13.7c7.5,9.2,18.9,15.1,31.7,15.1c22.5,0,40.8-18.3,40.8-40.8S217.2,177,194.7,177
	c-3.2,0-6.3,0.4-9.3,1.1l-25.1-37.6c8.4-7.5,13.6-18.3,13.6-30.4c0-3-0.3-5.9-0.9-8.7l52.4-26.2c7.5,8.7,18.5,14.2,30.9,14.2
	c22.5,0,40.8-18.3,40.8-40.8C297,25.9,278.7,7.6,256.2,7.6z M40.8,269.3c-11.4,0-20.7-9.3-20.7-20.8c0-11.4,9.3-20.8,20.7-20.8
	s20.7,9.3,20.7,20.8C61.5,260,52.2,269.3,40.8,269.3z M215.4,217.8c0,11.4-9.3,20.8-20.7,20.8c-11.4,0-20.7-9.3-20.7-20.8
	c0-11.4,9.3-20.8,20.7-20.8C206.1,197,215.4,206.3,215.4,217.8z M112.4,110c0-11.4,9.3-20.8,20.7-20.8s20.7,9.3,20.7,20.8
	s-9.3,20.8-20.7,20.8C121.7,130.8,112.4,121.5,112.4,110z M256.2,69.2c-11.4,0-20.7-9.3-20.7-20.8c0-11.4,9.3-20.8,20.7-20.8
	c11.4,0,20.7,9.3,20.7,20.8C276.9,59.9,267.6,69.2,256.2,69.2z"/>
</svg>
