<svg id="Layer_1" enable-background="new 0 0 496.158 496.158" height="512" viewBox="0 0 496.158 496.158" width="512" xmlns="http://www.w3.org/2000/svg"><path d="m496.158 158.739-248.079-106.32-248.079 106.32 38.079 16.319v151.261c-17.459 6.192-30 22.865-30 42.42v75h90v-75c0-19.555-12.541-36.228-30-42.42v-138.404l45 19.286v110.808l135 67.5 135-67.5v-110.807zm-428.079 255h-30v-45c0-8.272 6.728-15 15-15s15 6.728 15 15zm180-328.681 171.921 73.681-171.921 73.681-171.921-73.681zm105 214.41-105 52.5-105-52.5v-79.41l105 45 105-45z"/></svg>