<?xml version="1.0" encoding="utf-8"?>
<!-- Generator: Adobe Illustrator 25.4.1, SVG Export Plug-In . SVG Version: 6.00 Build 0)  -->
<svg version="1.1" id="Layer_1" xmlns="http://www.w3.org/2000/svg" xmlns:xlink="http://www.w3.org/1999/xlink" x="0px" y="0px"
	 viewBox="0 0 512 512" style="enable-background:new 0 0 512 512;" xml:space="preserve">
<style type="text/css">
	.st0{opacity:8.000000e-02;}
</style>
<g id="Outline" class="st0">
	<g>
		<path d="M302.9,67.6c0.7,0.2,1.5,0.3,2.3,0.3c3.5,0,6.6-2.3,7.7-5.7l9.3-31c1.3-4.2-1.1-8.7-5.4-10c-4.2-1.3-8.7,1.1-10,5.4l0,0
			l-9.3,31C296.3,61.9,298.7,66.4,302.9,67.6C302.9,67.6,302.9,67.6,302.9,67.6z"/>
		<path d="M355.6,80.4c3.9,2.1,8.7,0.7,10.8-3.2L382,48.7c2.1-3.9,0.7-8.7-3.2-10.9s-8.7-0.7-10.9,3.2l-15.5,28.5
			C350.3,73.5,351.8,78.3,355.6,80.4C355.6,80.4,355.6,80.4,355.6,80.4z"/>
		<path d="M415.5,106.5c2.4,0,4.6-1,6.1-2.8l21-25c2.9-3.3,2.5-8.4-0.8-11.3c-3.3-2.9-8.4-2.5-11.3,0.8c0,0.1-0.1,0.1-0.1,0.2
			l-21,25c-2.8,3.4-2.4,8.4,1,11.3C411.8,105.9,413.7,106.5,415.5,106.5z"/>
		<path d="M464.3,146.3c1.9,0,3.7-0.7,5.1-1.9l24.8-20.8c3.3-2.9,3.7-8,0.8-11.3c-2.8-3.2-7.7-3.7-11-1l-24.8,20.8
			c-3.4,2.8-3.8,7.9-1,11.3C459.8,145.2,462,146.3,464.3,146.3L464.3,146.3z"/>
		<path d="M90.3,103.7c2.8,3.4,7.8,3.9,11.3,1.1s3.9-7.8,1.1-11.3c0-0.1-0.1-0.1-0.1-0.2l-21-25c-2.9-3.3-7.9-3.7-11.3-0.8
			c-3.3,2.8-3.7,7.8-0.9,11.1L90.3,103.7z"/>
		<path d="M145.5,77.2c2.1,3.9,7,5.3,10.8,3.2c3.9-2.1,5.3-7,3.2-10.8l-15.5-28.5c-2.1-3.9-7-5.3-10.9-3.2c-3.9,2.1-5.3,7-3.2,10.9
			L145.5,77.2z"/>
		<path d="M42.8,144.6c3.4,2.8,8.5,2.3,11.3-1.1s2.3-8.5-1.1-11.3c-0.1-0.1-0.3-0.2-0.4-0.3l-23.7-18.3c-3.4-2.8-8.5-2.3-11.3,1.1
			c-2.8,3.4-2.3,8.5,1.1,11.3c0.1,0.1,0.3,0.2,0.4,0.3L42.8,144.6z"/>
		<path d="M199.1,62.3c1,3.4,4.1,5.7,7.7,5.7c0.8,0,1.6-0.1,2.3-0.3c4.2-1.3,6.6-5.7,5.4-10c0,0,0,0,0,0l-9.3-31
			c-1.3-4.2-5.7-6.6-10-5.4s-6.6,5.7-5.4,10L199.1,62.3z"/>
		<path d="M256,64c4.4,0,8-3.6,8-8V24c0-4.4-3.6-8-8-8s-8,3.6-8,8v32C248,60.4,251.6,64,256,64z"/>
		<path d="M147.3,312.5C103.1,292.4,64.4,262,34.2,224c15.4-19.2,32.9-36.6,52.2-51.8c3.5-2.7,4.1-7.8,1.4-11.2
			c-2.7-3.5-7.8-4.1-11.2-1.4c-22,17.3-41.7,37.3-58.8,59.5c-2.2,2.9-2.2,6.9,0,9.8C50,271.2,92.3,305,140.7,327.1
			c4,1.8,8.8,0,10.6-4.1S151.3,314.3,147.3,312.5L147.3,312.5z"/>
		<path d="M494.3,228.9c2.2-2.9,2.2-6.9,0-9.8C433.8,140.9,346.9,96,256,96c-54.8,0.2-108.5,16.2-154.6,45.9
			c-3.7,2.4-4.8,7.3-2.4,11s7.3,4.8,11,2.4l0,0c20.3-13,42.2-23.2,65.1-30.5c-54.7,44.5-63.1,124.9-18.6,179.6
			c5.8,7.1,12.3,13.5,19.4,19.2V336c-13.3,0-24,10.7-24,24s10.7,24,24,24h160c4.4,0,8,3.6,8,8s-3.6,8-8,8H176c-4.4,0-8,3.6-8,8
			s3.6,8,8,8c0,44.2,35.8,80,80,80s80-35.8,80-80c13.2,0.1,23.9-10.6,24-23.8c0-6-2.2-11.8-6.2-16.2c8.9-9.8,8.2-24.9-1.6-33.8
			c-4.4-4-10.2-6.3-16.2-6.2v-12.2c30.4-24.1,48.1-60.9,48-99.8c0-9.2-1-18.4-3-27.3c-0.9-4.3-5.1-7.1-9.5-6.2
			c-4.3,0.9-7.1,5.1-6.2,9.5c0,0.1,0,0.1,0,0.2c1.7,7.9,2.6,15.9,2.6,23.9c0.1,35.2-16.5,68.4-44.8,89.4c-2,1.5-3.2,3.9-3.2,6.4V336
			h-32v-56.6c27.1-15.6,38.9-48.5,27.9-77.7c-1.1-2.9-3.7-4.9-6.7-5.2c-3-0.3-6,1.2-7.6,3.8c-2.9,4.8-8,7.7-13.6,7.7
			c-8.8,0-16-7.2-16-16c0-5.6,2.9-10.7,7.7-13.6c3.8-2.3,5-7.2,2.7-11c-0.9-1.5-2.4-2.7-4-3.3c-33-12.4-69.8,4.3-82.2,37.3
			c-2.7,7.2-4.1,14.9-4.1,22.6c0.1,22.8,12.3,43.9,32,55.4V336h-32v-16.2c0-2.5-1.2-4.9-3.2-6.4c-49.4-37.2-59.3-107.3-22.2-156.7
			s107.3-59.3,156.7-22.2c13.3,10,24.1,22.8,31.9,37.5c2.1,3.9,6.9,5.4,10.8,3.4c3.9-2.1,5.4-6.9,3.4-10.8
			c-8-15.2-19-28.7-32.3-39.6c55.6,18.6,104.5,53,140.7,99.1c-30.2,38-68.9,68.4-113.1,88.5c-4,1.8-5.9,6.5-4.1,10.6
			s6.5,5.9,10.6,4.1C419.7,305,462,271.3,494.3,228.9z M256,480c-35.3,0-64-28.7-64-64h128C320,451.3,291.3,480,256,480z M344,360
			c0,4.4-3.6,8-8,8H176c-4.4,0-8-3.6-8-8s3.6-8,8-8h160C340.4,352,344,355.6,344,360z M235.4,267.3c-23.9-11.4-34-40.1-22.6-64
			c8-16.6,24.7-27.3,43.2-27.3c1.4,0,2.8,0.1,4.2,0.2c-8.7,15.4-3.3,34.9,12,43.6c9.8,5.6,21.8,5.6,31.6,0c0.1,1.4,0.2,2.8,0.2,4.2
			c-0.1,18.5-10.7,35.3-27.4,43.3c-2.8,1.3-4.6,4.1-4.6,7.2V336h-32v-61.5C240,271.5,238.2,268.6,235.4,267.3z"/>
		<path d="M421.7,332.9c-2.9-3.4-7.9-3.8-11.3-0.9c-3.4,2.9-3.8,7.9-0.9,11.3l21,25c2.8,3.4,7.9,3.8,11.3,1s3.8-7.9,1-11.3
			L421.7,332.9z"/>
		<path d="M469.5,292.2c-3.3-3-8.3-2.7-11.3,0.6c-3,3.3-2.7,8.3,0.6,11.3c0.1,0.1,0.3,0.2,0.4,0.4l24.8,20.8
			c3.4,2.8,8.5,2.2,11.2-1.2c2.7-3.3,2.2-8.2-1-11L469.5,292.2z"/>
		<path d="M90.3,332.9l-21,25c-2.8,3.4-2.4,8.4,1,11.3c3.4,2.8,8.4,2.4,11.3-1l21-25c2.9-3.3,2.5-8.4-0.8-11.3s-8.4-2.5-11.3,0.8
			C90.4,332.8,90.4,332.8,90.3,332.9L90.3,332.9z"/>
		<path d="M42.8,292l-23.7,18.3c-3.6,2.6-4.4,7.6-1.8,11.2c2.6,3.6,7.6,4.4,11.2,1.8c0.1-0.1,0.3-0.2,0.4-0.3l23.7-18.3
			c3.6-2.6,4.4-7.6,1.8-11.2c-2.6-3.6-7.6-4.4-11.2-1.8C43,291.7,42.9,291.8,42.8,292z"/>
	</g>
</g>
</svg>
